# xmcd
#
# Track frame offsets:
#  150
#  54070
#  80462
#  104012
#  135200
#  148742
#  157595
#  178570
#  196937
#  216525
#  232642
#  252317
#
# Disc length: 3696 seconds
#
# Revision: 2
# Processed by: cddbd v1.5.2PL0 Copyright (c) Steve Scherf et al.
# Submitted via: AltoMP3_Maker 3.0
#
DISCID=950e6e0c
DTITLE=Radio Filharmonisch Koor and Orkest - Mendelssohn Masterworks [CD 02) - Symphonies - Symphony No.2
DYEAR=2001
DGENRE=Classical
TTITLE0=Sinfonia:Maestoso-allegro
TTITLE1=Allegretto un poco agitato
TTITLE2=Adagio religioso
TTITLE3=Alles was Odem hat, lobe den Herren (Chorus,soprano)
TTITLE4=Saget es, die Ihr erlöst seid.Er zählet unsre Tränen.
TTITLE5=Sagt es, die ihr erlöset seid(Chorus)
TTITLE6=Ich harrete des Herrn (Sopranos I&II, chorus
TTITLE7=Stricke des Todes hatten uns umfangen (Tenor,soprano)
TTITLE8=Die Nacht ist vergangen(Chorus)
TTITLE9=Nun danket alle Gott(CHorus)
TTITLE10=Drum sing ich mit meinem Liede(Tenor,soprano)
TTITLE11=Ihr Völker!bringet her dem Herrn
EXTD=
EXTT0=
EXTT1=
EXTT2=
EXTT3=
EXTT4=
EXTT5=
EXTT6=
EXTT7=
EXTT8=
EXTT9=
EXTT10=
EXTT11=
PLAYORDER=
